<?xml version="1.0" encoding="utf-8"?>
<svg class="svg-icon" style="width: 1em; height: 1em;vertical-align: middle;fill: currentColor;overflow: hidden;" viewBox="0 0 36 45" version="1.1" preserveAspectRatio="xMidYMid slice" xmlns="http://www.w3.org/2000/svg">
  <path d="M 33.746 11.26 L 26.999 11.26 L 26.999 9.009 C 26.999 2.085 19.501 -2.245 13.503 1.219 C 10.719 2.826 9.004 5.796 9.004 9.009 L 9.004 11.26 L 2.255 11.26 C 1.014 11.26 0.007 12.267 0.007 13.508 L 0.007 38.252 C 0.007 41.978 3.029 45 6.754 45 L 29.246 45 C 32.975 45 35.996 41.978 35.996 38.252 L 35.996 13.508 C 35.996 12.267 34.989 11.26 33.746 11.26 Z M 13.503 9.009 C 13.503 5.547 17.252 3.383 20.25 5.113 C 21.643 5.916 22.5 7.404 22.5 9.009 L 22.5 11.26 L 13.503 11.26 L 13.503 9.009 Z M 31.498 38.252 C 31.498 39.494 30.491 40.501 29.246 40.501 L 6.754 40.501 C 5.513 40.501 4.506 39.494 4.506 38.252 L 4.506 15.757 L 9.004 15.757 L 9.004 18.007 C 9.004 19.738 10.878 20.822 12.378 19.957 C 13.073 19.555 13.503 18.812 13.503 18.007 L 13.503 15.757 L 22.5 15.757 L 22.5 18.007 C 22.5 19.738 24.373 20.822 25.874 19.957 C 26.569 19.555 26.999 18.812 26.999 18.007 L 26.999 15.757 L 31.498 15.757 L 31.498 38.252 Z" style="fill: rgb(255, 255, 255); fill-opacity: 0.8;"/>
</svg>