<?xml version="1.0" encoding="UTF-8" standalone="no"?>
<svg
   height="231.28207"
   width="923.07697"
   viewBox="-162 -67.65 1080 117.34674"
   version="1.1"
   id="svg14"
   sodipodi:docname="ether"
   inkscape:export-filename="ether.png"
   inkscape:export-xdpi="96"
   inkscape:export-ydpi="96"
   inkscape:version="1.2.2 (732a01da63, 2022-12-09, custom)"
   xmlns:inkscape="http://www.inkscape.org/namespaces/inkscape"
   xmlns:sodipodi="http://sodipodi.sourceforge.net/DTD/sodipodi-0.dtd"
   xmlns="http://www.w3.org/2000/svg"
   xmlns:svg="http://www.w3.org/2000/svg">
  <sodipodi:namedview
     id="namedview26"
     pagecolor="#ffffff"
     bordercolor="#666666"
     borderopacity="1.0"
     inkscape:showpageshadow="2"
     inkscape:pageopacity="0.0"
     inkscape:pagecheckerboard="0"
     inkscape:deskcolor="#d1d1d1"
     showgrid="false"
     inkscape:zoom="0.7095833"
     inkscape:cx="449.55962"
     inkscape:cy="-40.164418"
     inkscape:window-width="1920"
     inkscape:window-height="1016"
     inkscape:window-x="0"
     inkscape:window-y="0"
     inkscape:window-maximized="1"
     inkscape:current-layer="svg14" />
  <defs
     id="defs18" />
  <g
     id="g138"
     transform="translate(0,188.42339)">
    <path
       d="m 144.20002,-177.00002 c 0,1.9 -1.6,3.5 -3.6,3.5 H 74.300015 c 1.7,16.4 14,31.4 31.400005,31.4 11.9,0 20.7,-4.5 27.3,-14 0.7,-1 1.7,-1.7 2.9,-1.7 1.9,0 3.3,1.4 3.3,3.3 0,0.7 -0.2,1.2 -0.5,1.7 -6.7,11.6 -20,17.3 -33,17.3 -22.300005,0 -38.300005,-20 -38.300005,-41.3 0,-21.4 15.9,-41.3 38.300005,-41.3 22.3,0 38.4,19.8 38.5,41.1 z m -7.1,-3.1 c -1.4,-16.4 -14,-31.4 -31.4,-31.4 -17.400005,0 -29.700005,15 -31.400005,31.4 z m 87.6,-36.4 c 1.9,0 3.3,1.7 3.3,3.3 0,1.9 -1.4,3.3 -3.3,3.3 h -17.8 v 69.9 c 0,1.7 -1.4,3.3 -3.3,3.3 -1.9,0 -3.3,-1.7 -3.3,-3.3 v -69.9 h -17.1 c -1.9,0 -3.3,-1.4 -3.3,-3.3 0,-1.7 1.4,-3.3 3.3,-3.3 h 17.1 v -25.5 c 0,-1.7 1.3,-3.3 3,-3.5 2.1,-0.2 3.7,1.3 3.7,3.3 v 25.7 z m 108.6,33.8 v 42.3 c 0,1.9 -1.7,3.3 -3.3,3.3 -1.9,0 -3.3,-1.4 -3.3,-3.3 v -42.3 c 0,-14.3 -8.1,-28.5 -24,-28.5 -20.4,0 -29.2,17.8 -28,36.1 0,0.5 0.2,2.6 0.2,2.9 v 31.7 c 0,1.7 -1.3,3.3 -3,3.5 -2.1,0.2 -3.7,-1.3 -3.7,-3.3 v -139.1 c 0,-1.7 1.4,-3.3 3.3,-3.3 1.9,0 3.3,1.7 3.3,3.3 v 78.6 c 5.7,-10.2 15.9,-17.1 27.8,-17.1 19.6,0 30.7,17.1 30.7,35.2 z m 119.1,5.7 c 0,1.9 -1.6,3.5 -3.6,3.5 h -66.3 c 1.7,16.4 14,31.4 31.4,31.4 11.9,0 20.7,-4.5 27.3,-14 0.7,-1 1.7,-1.7 2.9,-1.7 1.9,0 3.3,1.4 3.3,3.3 0,0.7 -0.2,1.2 -0.5,1.7 -6.7,11.6 -20,17.3 -33,17.3 -22.3,0 -38.3,-20 -38.3,-41.3 0,-21.4 15.9,-41.3 38.3,-41.3 22.2,0 38.3,19.8 38.5,41.1 z m -7.2,-3.1 c -1.4,-16.4 -14,-31.4 -31.4,-31.4 -17.3,0 -29.7,15 -31.4,31.4 z m 88.6,-33.3 c 0,2.1 -1.2,3.3 -3.1,3.6 -19.5,2.9 -28.3,18.8 -28.3,37.3 v 31.7 c 0,1.7 -1.3,3.3 -3,3.5 -2.1,0.2 -3.7,-1.3 -3.7,-3.3 v -72.3 c 0,-1.7 1.3,-3.3 3,-3.5 2.1,-0.2 3.7,1.3 3.7,3.3 v 14.7 c 5.5,-9.3 16.4,-18.1 27.8,-18.1 1.7,0 3.6,1.2 3.6,3.1 z m 109.1,36.4 c 0,1.9 -1.6,3.5 -3.6,3.5 h -66.3 c 1.7,16.4 14,31.4 31.4,31.4 11.9,0 20.7,-4.5 27.3,-14 0.7,-1 1.7,-1.7 2.9,-1.7 1.9,0 3.3,1.4 3.3,3.3 0,0.7 -0.2,1.2 -0.5,1.7 -6.7,11.6 -20,17.3 -33,17.3 -22.3,0 -38.3,-20 -38.3,-41.3 0,-21.4 15.9,-41.3 38.3,-41.3 22.3,0 38.4,19.8 38.5,41.1 z m -7.1,-3.1 c -1.4,-16.4 -14,-31.4 -31.4,-31.4 -17.4,0 -29.7,15 -31.4,31.4 z m 114.3,-32.5 v 72.6 c 0,1.9 -1.7,3.3 -3.3,3.3 -1.9,0 -3.3,-1.4 -3.3,-3.3 v -13.8 c -5.5,10.9 -15.2,18.8 -27.6,18.8 -19.7,0 -30.6,-17.1 -30.6,-35.2 v -42.5 c 0,-1.7 1.4,-3.3 3.3,-3.3 1.9,0 3.3,1.7 3.3,3.3 v 42.5 c 0,14.3 8.1,28.5 24,28.5 22.3,0 27.6,-20.9 27.6,-44 v -27.1 c 0,-2 2.1,-4 4.5,-3.1 1.2,0.6 2.1,1.9 2.1,3.3 z m 167.9,29.6 v 42.5 c 0,1.9 -1.7,3.3 -3.3,3.3 -1.9,0 -3.3,-1.4 -3.3,-3.3 v -42.5 c 0,-14.3 -8.1,-28.3 -24,-28.3 -20,0 -27.6,21.4 -27.6,38 v 32.8 c 0,1.9 -1.7,3.3 -3.3,3.3 -1.9,0 -3.3,-1.4 -3.3,-3.3 v -42.5 c 0,-14.3 -8.1,-28.3 -24,-28.3 -20.2,0 -28.5,15.9 -27.8,37.1 0,0.5 0.2,1.4 0,1.7 v 31.9 c 0,1.7 -1.3,3.3 -3,3.5 -2.1,0.2 -3.7,-1.3 -3.7,-3.3 v -72.5 c 0,-1.7 1.3,-3.3 3,-3.5 2.1,-0.2 3.7,1.3 3.7,3.3 v 12.1 c 5.7,-10.2 15.9,-16.9 27.8,-16.9 13.5,0 24,8.6 28.3,21.1 5.5,-12.4 16.2,-21.1 29.9,-21.1 19.5,0 30.6,16.9 30.6,34.9 z"
       fill="#ffffff80"
       id="path2" />
    <path
       opacity="0.6"
       d="m -78.999985,-145.80002 83.1000003,-49.1 -83.1000003,-37.7 -82.999995,37.7 z"
       id="path4" />
    <path
       opacity="0.45"
       d="m -78.999985,-232.60002 v -100.1 l -82.999995,137.8 82.999995,49.1 z"
       id="path6" />
    <path
       opacity="0.8"
       d="m -78.999985,-145.80002 83.1000003,-49.1 -83.1000003,-137.8 v 100.1 z"
       id="path8" />
    <path
       opacity="0.45"
       d="m -78.999985,-130.10002 -82.999995,-49 82.999995,117.000003 z"
       id="path10" />
    <path
       opacity="0.8"
       d="m 4.1000153,-179.10002 -83.1000003,49 v 68.000003 z"
       id="path12" />
  </g>
</svg>
