<svg width="164" height="35" viewBox="0 0 164 35" fill="none" xmlns="http://www.w3.org/2000/svg">
<path fill-rule="evenodd" clip-rule="evenodd" d="M6.59543 9.23606C9.33578 5.73384 13.724 3.4649 18.6699 3.4649C23.6449 3.4649 28.0554 5.76062 30.7925 9.29796C30.676 9.41178 30.5699 9.52975 30.4739 9.64756C29.9725 10.2644 29.5953 11.059 29.2931 11.8659C28.6845 13.4887 28.2203 15.6085 27.7905 17.5934L27.7523 17.7719C27.3235 19.7532 26.9249 21.5959 26.443 22.9638C26.2264 23.5783 26.0211 24.0128 25.839 24.291C25.649 24.0105 25.4335 23.5708 25.2053 22.9474C24.6899 21.5403 24.2563 19.6263 23.7968 17.5826L23.7819 17.5157V17.5156C23.3403 15.5527 22.8718 13.4699 22.2877 11.8756C21.9943 11.0747 21.6342 10.2881 21.1633 9.67691C20.7011 9.07715 19.9318 8.40026 18.8066 8.40026C17.6885 8.40026 16.9157 9.0698 16.4468 9.66284C15.9668 10.2701 15.5926 11.0534 15.2843 11.8547C14.6634 13.4682 14.1559 15.5789 13.6835 17.5666L13.6347 17.7719C13.1669 19.7409 12.7296 21.5818 12.2332 22.9523C12.0438 23.4756 11.865 23.8739 11.7031 24.1583C11.5449 23.8752 11.3706 23.4796 11.1862 22.9607C10.7101 21.6193 10.2929 19.83 9.84487 17.9082L9.76643 17.5719C9.30223 15.5829 8.7986 13.4685 8.16891 11.8499C7.85606 11.0457 7.47339 10.2584 6.97821 9.64835C6.86607 9.51027 6.73865 9.3701 6.59543 9.23606ZM4.93691 11.9252C5.06742 12.1701 5.2055 12.4736 5.34824 12.8406C5.8933 14.2416 6.35504 16.1533 6.83053 18.1905L6.92309 18.5875C7.356 20.4463 7.80634 22.38 8.3368 23.8739C8.61894 24.6684 8.95966 25.4466 9.39783 26.0514C9.81221 26.6234 10.5556 27.3623 11.6987 27.3623C12.8385 27.3623 13.5836 26.627 14.0008 26.0576C14.4428 25.4542 14.7891 24.6768 15.0769 23.8818C15.6286 22.3583 16.0985 20.3793 16.5481 18.4855V18.4854L16.6168 18.1959C17.1013 16.1574 17.5676 14.2419 18.1087 12.8358C18.3593 12.1843 18.594 11.7305 18.7983 11.4489C18.9919 11.7281 19.2131 12.1747 19.4477 12.8149C19.9632 14.2221 20.3964 16.1361 20.856 18.1798L20.8711 18.2467C21.3126 20.2097 21.7811 22.2926 22.3651 23.8867C22.6586 24.6879 23.0186 25.4745 23.4896 26.0855C23.9518 26.6854 24.7211 27.3623 25.846 27.3623C26.977 27.3623 27.7435 26.6792 28.2002 26.074C28.664 25.4599 29.0128 24.6706 29.2945 23.8708C29.836 22.3343 30.2665 20.3408 30.677 18.4444V18.4443L30.7358 18.169C31.1779 16.1278 31.6021 14.2214 32.126 12.8246C32.2394 12.5207 32.3512 12.2616 32.4578 12.044C33.2605 13.7921 33.7057 15.7223 33.7057 17.7513C33.7057 25.6413 26.9743 32.0377 18.6699 32.0377C10.3658 32.0377 3.63391 25.6413 3.63391 17.7513C3.63391 15.6762 4.09953 13.7044 4.93691 11.9252ZM18.6699 0.607635C8.70493 0.607635 0.626709 8.28309 0.626709 17.7513C0.626709 27.2194 8.70493 34.8948 18.6699 34.8948C28.6351 34.8948 36.713 27.2194 36.713 17.7513C36.713 8.28309 28.6351 0.607635 18.6699 0.607635ZM19.0137 11.2098C19.0137 11.2101 19.0102 11.2128 19.0031 11.2167C19.0101 11.2114 19.0137 11.2094 19.0137 11.2098ZM18.598 11.2117C18.5911 11.2076 18.5876 11.2049 18.5876 11.2045C18.5876 11.2041 18.5911 11.2062 18.598 11.2117ZM25.6174 24.5622C25.6174 24.5622 25.6206 24.5591 25.6272 24.5551C25.6206 24.5604 25.6174 24.5627 25.6174 24.5622ZM26.0546 24.5507C26.0616 24.5547 26.0653 24.5573 26.0653 24.5578C26.0653 24.5582 26.0616 24.556 26.0546 24.5507ZM11.3905 24.5879C11.3905 24.5874 11.3948 24.5834 11.4035 24.5777C11.3949 24.5852 11.3905 24.5883 11.3905 24.5879ZM11.9995 24.5803C12.0081 24.5861 12.0124 24.5901 12.0124 24.5905C12.0124 24.591 12.008 24.5883 11.9995 24.5803Z" fill="#81818B"/>
<path d="M46.6756 27.9007L42.3003 13.6801H46.1328L48.7279 23.9154L51.745 13.6801H56.0301L59.0478 23.9154L61.6728 13.6801H65.5053L61.0995 27.9007H57.0864L53.8876 17.2639L50.6893 27.9007H46.6756Z" fill="#81818B"/>
<path d="M71.1286 28.2449C69.8413 28.2449 68.785 28.0533 67.9602 27.6711C67.136 27.2698 66.5223 26.7442 66.1196 26.0943C65.7174 25.4444 65.5164 24.7277 65.5164 23.9442C65.5164 22.6254 66.0592 21.5549 67.1454 20.733C68.2317 19.9112 69.8618 19.5002 72.0342 19.5002H75.8363V19.1562C75.8363 18.1813 75.5444 17.4646 74.9611 17.0059C74.3778 16.5471 73.6533 16.3178 72.7887 16.3178C72.0038 16.3178 71.3197 16.4993 70.7364 16.8625C70.1532 17.2066 69.7909 17.7226 69.6502 18.4107H65.8781C65.9789 17.3786 66.3411 16.4802 66.9643 15.7157C67.6085 14.9512 68.4333 14.3682 69.4386 13.9668C70.4451 13.5463 71.5712 13.3361 72.8186 13.3361C74.9511 13.3361 76.6306 13.8425 77.8581 14.8556C79.085 15.8686 79.6987 17.3022 79.6987 19.1562V27.9007H76.4091L76.0473 25.6072C75.6048 26.3717 74.9811 27.0022 74.1768 27.4995C73.3919 27.9963 72.376 28.2449 71.1286 28.2449ZM72.0038 25.3776C73.1105 25.3776 73.9652 25.0334 74.5684 24.3455C75.1921 23.6575 75.5848 22.8067 75.746 21.7938H72.4563C71.4305 21.7938 70.6965 21.9754 70.2534 22.3386C69.8114 22.6824 69.5898 23.1129 69.5898 23.6287C69.5898 24.1831 69.8114 24.6131 70.2534 24.9188C70.6965 25.2245 71.2793 25.3776 72.0038 25.3776Z" fill="#81818B"/>
<path d="M85.7788 27.9007L80.2874 13.6801H84.3304L88.1324 24.4317L91.9345 13.6801H95.978L90.4561 27.9007H85.7788Z" fill="#81818B"/>
<path d="M103.742 28.2449C102.234 28.2449 100.896 27.9388 99.7292 27.3273C98.5626 26.7155 97.6476 25.8554 96.9834 24.7467C96.3193 23.6385 95.988 22.3577 95.988 20.905C95.988 19.4333 96.3099 18.124 96.953 16.9772C97.6171 15.8304 98.5222 14.9416 99.6693 14.3108C100.835 13.661 102.204 13.3361 103.773 13.3361C105.241 13.3361 106.539 13.6419 107.666 14.2535C108.792 14.8651 109.667 15.7061 110.291 16.7765C110.934 17.8277 111.257 19.0032 111.257 20.303C111.257 20.5132 111.246 20.733 111.226 20.9624C111.226 21.1918 111.216 21.4307 111.196 21.6792H99.82C99.9003 22.7877 100.303 23.6575 101.027 24.2884C101.771 24.9188 102.667 25.2343 103.713 25.2343C104.497 25.2343 105.151 25.0719 105.674 24.7467C106.217 24.403 106.619 23.9632 106.881 23.4279H110.804C110.522 24.3264 110.049 25.1485 109.386 25.8939C108.741 26.6199 107.937 27.1933 106.971 27.614C106.026 28.0343 104.949 28.2449 103.742 28.2449ZM103.773 16.3178C102.828 16.3178 101.992 16.5758 101.268 17.0919C100.544 17.5888 100.081 18.3534 99.8799 19.3855H107.333C107.273 18.4489 106.911 17.7035 106.247 17.1492C105.583 16.5949 104.759 16.3178 103.773 16.3178Z" fill="#81818B"/>
<path d="M113.298 27.9007V7.25787H117.16V27.9007H113.298Z" fill="#81818B"/>
<path d="M127.171 28.2449C125.663 28.2449 124.325 27.9388 123.158 27.3273C121.992 26.7155 121.077 25.8554 120.413 24.7467C119.749 23.6385 119.417 22.3577 119.417 20.905C119.417 19.4333 119.739 18.124 120.382 16.9772C121.046 15.8304 121.951 14.9416 123.099 14.3108C124.265 13.661 125.633 13.3361 127.202 13.3361C128.67 13.3361 129.968 13.6419 131.095 14.2535C132.221 14.8651 133.097 15.7061 133.72 16.7765C134.363 17.8277 134.686 19.0032 134.686 20.303C134.686 20.5132 134.675 20.733 134.655 20.9624C134.655 21.1918 134.645 21.4307 134.625 21.6792H123.249C123.33 22.7877 123.732 23.6575 124.456 24.2884C125.2 24.9188 126.096 25.2343 127.142 25.2343C127.926 25.2343 128.58 25.0719 129.103 24.7467C129.646 24.403 130.048 23.9632 130.31 23.4279H134.233C133.951 24.3264 133.478 25.1485 132.815 25.8939C132.171 26.6199 131.366 27.1933 130.4 27.614C129.455 28.0343 128.379 28.2449 127.171 28.2449ZM127.202 16.3178C126.257 16.3178 125.422 16.5758 124.697 17.0919C123.973 17.5888 123.511 18.3534 123.309 19.3855H130.762C130.702 18.4489 130.34 17.7035 129.676 17.1492C129.012 16.5949 128.188 16.3178 127.202 16.3178Z" fill="#81818B"/>
<path d="M142.913 28.2449C141.585 28.2449 140.418 28.044 139.413 27.6428C138.406 27.222 137.602 26.6487 136.998 25.9222C136.395 25.1962 136.033 24.3552 135.912 23.3996H139.804C139.925 23.9535 140.248 24.4317 140.77 24.833C141.313 25.2152 142.007 25.4064 142.852 25.4064C143.697 25.4064 144.311 25.244 144.693 24.9188C145.095 24.5941 145.296 24.2212 145.296 23.8008C145.296 23.189 145.015 22.778 144.452 22.5678C143.888 22.3386 143.104 22.1188 142.098 21.9085C141.455 21.7747 140.801 21.6123 140.137 21.4211C139.473 21.23 138.859 20.991 138.296 20.7044C137.753 20.3985 137.31 20.0163 136.968 19.5575C136.626 19.0797 136.455 18.4967 136.455 17.8086C136.455 16.5471 136.978 15.4864 138.025 14.6262C139.09 13.7661 140.579 13.3361 142.49 13.3361C144.261 13.3361 145.669 13.7279 146.715 14.5115C147.781 15.2952 148.414 16.3751 148.616 17.7513H144.965C144.743 16.7001 143.908 16.1744 142.46 16.1744C141.736 16.1744 141.173 16.3082 140.77 16.5758C140.388 16.8434 140.197 17.1779 140.197 17.5793C140.197 17.9998 140.489 18.3343 141.072 18.5828C141.656 18.8312 142.43 19.0606 143.395 19.2709C144.441 19.5002 145.397 19.7582 146.262 20.0449C147.147 20.3125 147.851 20.7235 148.375 21.2778C148.897 21.8129 149.159 22.5869 149.159 23.6C149.179 24.4795 148.937 25.2723 148.435 25.9797C147.932 26.6867 147.208 27.2411 146.262 27.6428C145.317 28.044 144.2 28.2449 142.913 28.2449Z" fill="#81818B"/>
<path d="M157.559 28.2449C156.232 28.2449 155.065 28.044 154.059 27.6428C153.053 27.222 152.249 26.6487 151.645 25.9222C151.042 25.1962 150.679 24.3552 150.559 23.3996H154.451C154.572 23.9535 154.894 24.4317 155.417 24.833C155.96 25.2152 156.654 25.4064 157.499 25.4064C158.344 25.4064 158.958 25.244 159.34 24.9188C159.742 24.5941 159.943 24.2212 159.943 23.8008C159.943 23.189 159.662 22.778 159.098 22.5678C158.535 22.3386 157.751 22.1188 156.745 21.9085C156.101 21.7747 155.447 21.6123 154.783 21.4211C154.12 21.23 153.506 20.991 152.943 20.7044C152.4 20.3985 151.957 20.0163 151.615 19.5575C151.273 19.0797 151.102 18.4967 151.102 17.8086C151.102 16.5471 151.625 15.4864 152.671 14.6262C153.737 13.7661 155.226 13.3361 157.137 13.3361C158.907 13.3361 160.315 13.7279 161.361 14.5115C162.427 15.2952 163.061 16.3751 163.263 17.7513H159.611C159.39 16.7001 158.555 16.1744 157.107 16.1744C156.382 16.1744 155.819 16.3082 155.417 16.5758C155.035 16.8434 154.844 17.1779 154.844 17.5793C154.844 17.9998 155.135 18.3343 155.719 18.5828C156.302 18.8312 157.076 19.0606 158.042 19.2709C159.088 19.5002 160.044 19.7582 160.909 20.0449C161.794 20.3125 162.498 20.7235 163.021 21.2778C163.544 21.8129 163.806 22.5869 163.806 23.6C163.826 24.4795 163.584 25.2723 163.081 25.9797C162.578 26.6867 161.854 27.2411 160.909 27.6428C159.963 28.044 158.847 28.2449 157.559 28.2449Z" fill="#81818B"/>
</svg>
