<svg width="210" height="79" viewBox="0 0 210 79" fill="none" xmlns="http://www.w3.org/2000/svg">
<path d="M71.0681 30.5348C72.6557 30.5348 74.0296 30.7903 75.1904 31.3014C76.368 31.8124 77.272 32.5378 77.9036 33.4776C78.5352 34.4173 78.8512 35.5301 78.8512 36.816C78.8512 38.0854 78.5352 39.1982 77.9036 40.1544C77.272 41.0941 76.368 41.8195 75.1904 42.3308C74.0296 42.8251 72.6557 43.0725 71.0681 43.0725H67.4587V47.8453H63.3118V30.5348H71.0681ZM70.8382 39.8082C72.0835 39.8082 73.0311 39.5527 73.6795 39.0416C74.3284 38.514 74.6523 37.7722 74.6523 36.816C74.6523 35.8433 74.3284 35.1014 73.6795 34.5904C73.0311 34.0628 72.0835 33.799 70.8382 33.799H67.4587V39.8082H70.8382Z" fill="#81818B"/>
<path d="M84.0651 36.2967C84.5424 35.6537 85.1829 35.1674 85.9845 34.8377C86.8041 34.5079 87.7422 34.3431 88.8006 34.3431V37.9041C88.357 37.8711 88.0583 37.8547 87.9045 37.8547C86.761 37.8547 85.8654 38.1679 85.217 38.7944C84.5681 39.4043 84.2436 40.3276 84.2436 41.5639V47.8454H80.2505V34.541H84.0651V36.2967Z" fill="#81818B"/>
<path d="M96.3239 48.0429C94.8733 48.0429 93.5677 47.7547 92.4074 47.1774C91.264 46.5841 90.3678 45.7678 89.7194 44.7292C89.071 43.6906 88.7466 42.5118 88.7466 41.1931C88.7466 39.8742 89.071 38.6954 89.7194 37.6568C90.3678 36.6182 91.264 35.8104 92.4074 35.2334C93.5677 34.6399 94.8733 34.3431 96.3239 34.3431C97.7745 34.3431 99.0718 34.6399 100.215 35.2334C101.359 35.8104 102.255 36.6182 102.904 37.6568C103.552 38.6954 103.876 39.8742 103.876 41.1931C103.876 42.5118 103.552 43.6906 102.904 44.7292C102.255 45.7678 101.359 46.5841 100.215 47.1774C99.0718 47.7547 97.7745 48.0429 96.3239 48.0429ZM96.3239 44.8776C97.3482 44.8776 98.1845 44.5482 98.8329 43.8885C99.4986 43.2127 99.8309 42.3143 99.8309 41.1931C99.8309 40.072 99.4986 39.1818 98.8329 38.5223C98.1845 37.8464 97.3482 37.5084 96.3239 37.5084C95.3002 37.5084 94.4554 37.8464 93.7897 38.5223C93.124 39.1818 92.7912 40.072 92.7912 41.1931C92.7912 42.3143 93.124 43.2127 93.7897 43.8885C94.4554 44.5482 95.3002 44.8776 96.3239 44.8776Z" fill="#81818B"/>
<path d="M121.983 30.5348V47.8453H118.578L109.643 37.3353V47.8453H105.547V30.5348H108.977L117.887 41.0447V30.5348H121.983Z" fill="#81818B"/>
<path d="M130.216 34.3431C132.349 34.3431 133.988 34.8377 135.131 35.8269C136.275 36.7996 136.847 38.2751 136.847 40.2534V47.8454H133.109V46.1883C132.358 47.4248 130.959 48.0429 128.911 48.0429C127.852 48.0429 126.93 47.8701 126.146 47.5238C125.378 47.1774 124.789 46.6996 124.379 46.0894C123.97 45.4795 123.765 44.7869 123.765 44.0122C123.765 42.7757 124.243 41.8031 125.198 41.0942C126.171 40.3853 127.665 40.0308 129.679 40.0308H132.853C132.853 39.19 132.589 38.5471 132.059 38.1019C131.53 37.6403 130.737 37.4095 129.679 37.4095C128.945 37.4095 128.219 37.5249 127.503 37.7557C126.803 37.9701 126.205 38.2668 125.71 38.646L124.277 35.9505C125.028 35.4394 125.923 35.0438 126.965 34.7635C128.023 34.4833 129.107 34.3431 130.216 34.3431ZM129.909 45.4466C130.592 45.4466 131.198 45.2982 131.726 45.0013C132.255 44.6879 132.631 44.2348 132.853 43.6411V42.2813H130.114C128.475 42.2813 127.656 42.8004 127.656 43.839C127.656 44.3338 127.852 44.7292 128.245 45.0261C128.654 45.3064 129.209 45.4466 129.909 45.4466Z" fill="#81818B"/>
<path d="M148.064 47.2021C147.672 47.4825 147.185 47.6969 146.605 47.8453C146.042 47.9768 145.445 48.0428 144.813 48.0428C143.175 48.0428 141.903 47.6392 140.999 46.8315C140.111 46.0234 139.667 44.8363 139.667 43.2704V37.8052H137.543V34.8377H139.667V31.5981H143.661V34.8377H147.091V37.8052H143.661V43.2209C143.661 43.7812 143.806 44.2183 144.096 44.5316C144.403 44.8281 144.83 44.9765 145.376 44.9765C146.008 44.9765 146.545 44.8116 146.989 44.4822L148.064 47.2021Z" fill="#81818B"/>
<path d="M162.902 34.541V47.8454H159.113V46.2626C158.583 46.8394 157.952 47.2847 157.218 47.598C156.484 47.8949 155.691 48.0429 154.837 48.0429C153.028 48.0429 151.595 47.5403 150.536 46.5347C149.478 45.5291 148.949 44.037 148.949 42.0588V34.541H152.943V41.4898C152.943 43.6329 153.873 44.7045 155.733 44.7045C156.689 44.7045 157.457 44.408 158.037 43.8143C158.617 43.2045 158.907 42.3061 158.907 41.119V34.541H162.902Z" fill="#81818B"/>
<path d="M169.136 36.2967C169.613 35.6537 170.254 35.1674 171.056 34.8377C171.875 34.5079 172.814 34.3431 173.872 34.3431V37.9041C173.428 37.8711 173.129 37.8547 172.976 37.8547C171.832 37.8547 170.936 38.1679 170.288 38.7944C169.639 39.4043 169.315 40.3276 169.315 41.5639V47.8454H165.322V34.541H169.136V36.2967Z" fill="#81818B"/>
<path d="M188.333 41.2427C188.333 41.2918 188.308 41.6381 188.256 42.2813H177.837C178.024 43.1055 178.468 43.7565 179.168 44.2348C179.868 44.7127 180.738 44.9518 181.779 44.9518C182.496 44.9518 183.127 44.8529 183.673 44.655C184.237 44.441 184.758 44.1111 185.235 43.6658L187.36 45.8915C186.063 47.3259 184.169 48.0429 181.676 48.0429C180.124 48.0429 178.75 47.7547 177.555 47.1774C176.36 46.5841 175.439 45.7678 174.79 44.7292C174.142 43.6906 173.818 42.5118 173.818 41.1931C173.818 39.8907 174.133 38.7202 174.765 37.6816C175.413 36.6264 176.292 35.8104 177.401 35.2334C178.528 34.6399 179.782 34.3431 181.165 34.3431C182.513 34.3431 183.733 34.6234 184.826 35.1839C185.918 35.7444 186.771 36.5522 187.386 37.6074C188.017 38.646 188.333 39.8577 188.333 41.2427ZM181.19 37.2611C180.286 37.2611 179.526 37.5084 178.912 38.003C178.297 38.4976 177.922 39.1736 177.786 40.0308H184.57C184.433 39.19 184.057 38.5223 183.443 38.0277C182.829 37.5167 182.078 37.2611 181.19 37.2611Z" fill="#81818B"/>
<path fill-rule="evenodd" clip-rule="evenodd" d="M40.568 20.8946C39.9595 20.5545 39.2092 20.5545 38.6007 20.8946C34.2787 23.3096 31.3637 27.8282 31.3637 33.0068C31.3637 33.7449 31.4229 34.4695 31.537 35.1767C28.5617 34.2006 25.3402 34.5558 22.7089 36.0204C22.0999 36.3594 21.7247 36.987 21.7253 37.6661C21.7284 41.2485 23.655 44.7399 27.1053 46.6641C28.798 47.6083 30.6455 48.0569 32.4679 48.0577C32.1906 48.8167 32.0398 49.6331 32.0398 50.4837C32.0398 54.5086 35.4175 57.771 39.5841 57.771C43.7508 57.771 47.1283 54.5086 47.1283 50.4837C47.1283 49.631 46.9768 48.813 46.6985 48.0528C48.4122 48.0004 50.1383 47.551 51.7278 46.6641C55.1785 44.7399 57.1047 41.2485 57.1073 37.6662C57.1084 36.9872 56.733 36.3596 56.124 36.0205C53.5967 34.6136 50.5242 34.2305 47.6491 35.0677C47.7519 34.3951 47.8048 33.707 47.8048 33.0068C47.8048 27.8282 44.89 23.3096 40.568 20.8946ZM35.2924 33.0068C35.2924 29.644 36.978 26.6597 39.5843 24.8021C42.1907 26.6597 43.8763 29.644 43.8763 33.0068C43.8763 36.3696 42.1907 39.3539 39.5843 41.2115C36.978 39.3539 35.2924 36.3696 35.2924 33.0068ZM47.3315 39.3087C49.1455 38.297 51.2417 38.1793 53.0727 38.8195C52.7315 40.6714 51.5776 42.3659 49.7635 43.3776C47.9495 44.3894 45.8534 44.5069 44.0223 43.867C44.3638 42.0149 45.5174 40.3205 47.3315 39.3087ZM25.7604 38.8194C27.5914 38.1792 29.6875 38.2969 31.5016 39.3086C33.3157 40.3203 34.4692 42.0149 34.8109 43.8666C32.9798 44.5069 30.8837 44.3894 29.0696 43.3776C27.2556 42.3659 26.102 40.6712 25.7604 38.8194ZM35.9685 50.4837C35.9685 48.5549 37.5872 46.991 39.5841 46.991C41.5809 46.991 43.1998 48.5549 43.1998 50.4837C43.1998 52.4124 41.5809 53.9763 39.5841 53.9763C37.5872 53.9763 35.9685 52.4124 35.9685 50.4837Z" fill="#81818B"/>
</svg>
