<?xml version="1.0" encoding="utf-8"?>
<svg width="20" height="20px" viewBox="0 0 20 20" fill="none" xmlns="http://www.w3.org/2000/svg">
  <path d="M 17.666 5.878 C 17.482 5.139 16.939 4.556 16.251 4.359 C 15.003 4 10 4 10 4 C 10 4 4.997 4 3.749 4.359 C 3.061 4.557 2.518 5.139 2.334 5.878 C 2 7.217 2 10.012 2 10.012 C 2 10.012 2 12.807 2.334 14.147 C 2.518 14.886 3.061 15.444 3.749 15.641 C 4.997 16 10 16 10 16 C 10 16 15.003 16 16.251 15.641 C 16.939 15.444 17.482 14.886 17.666 14.147 C 18 12.807 18 10.012 18 10.012 C 18 10.012 18 7.217 17.666 5.878 Z M 8.364 12.55 L 8.364 7.475 L 12.545 10.012 L 8.364 12.55 Z" fill="#75757F"/>
</svg>